<?xml version="1.0" encoding="UTF-8"?>
      <svg id="Layer_2" data-name="Layer 2" xmlns="http://www.w3.org/2000/svg" viewBox="0 0 182.21 94.13">
        <defs>
          <style>
            .cls-1 {
              fill: #f1c400;
            }
      
            .cls-2 {
              fill: #fff;
            }
      
            .cls-3 {
              fill: #64582c;
            }
      
            .cls-4 {
              fill: #564a19;
            }
      
            .cls-5 {
              fill: #5e5223;
            }
      
            .cls-6 {
              opacity: .5;
            }
          </style>
        </defs>
        <g id="Layer_1-2" data-name="Layer 1">
          <g id="ZpBDbf.tif">
            <g class="cls-6">
              <path class="cls-4" d="m77.53,19.07c.13.04.22,0,.27-.12,1.02-.39,1.4-1.22,1.64-2.22.33-1.42-.4-2.98-1.73-3.6-1.49-.69-3.46-.23-4.16.9-1.03,1.63-.95,2.9.16,4.4.79,1.06,2.75,1.38,3.83.65Zm-2.45,59.91c2.82,0,5.64,0,8.45,0,.21,0,.65.16.57-.26-.11-.59-.14-1.21-.44-1.76-.83-1.49-2.21-2.03-3.8-2.09-1.67-.06-3.34-.03-5.01,0-3.06.04-6.11-.11-9.17.07-1.61.1-3.12.55-4.11,1.97-.83,1.19-1.02,2.55-.94,3.98.06,1.17.43,2.22,1.13,3.14,1.11,1.45,2.75,1.9,4.43,2.06,2.42.24,4.86.35,7.3.44,1.7.06,3.4.2,5.1.3.49.03.97.29.94.8-.03.67.38,1.46-.37,1.99-.05.04-.13.05-.2.07-.36.12-.73.16-1.11.16-3.3,0-6.59.01-9.89.02-2.2,0-4.39.02-6.59.03-.76,0-.89.2-.67.94.14.48.36.93.65,1.32.8,1.1,1.84,1.82,3.27,1.82,4.82,0,9.65.05,14.47-.02,1.39-.02,2.79-.43,3.76-1.58,1.48-1.75,1.45-3.82.98-5.88-.49-2.17-2.15-3.22-4.19-3.51-2.15-.3-4.33-.38-6.5-.45-1.21-.04-2.42-.11-3.62-.22-1.03-.09-2.07.07-3.1-.22-1.06-.3-1.44-.76-1.34-1.9.07-.85.44-1.14,1.54-1.21.21-.01.43,0,.64,0,2.6,0,5.21,0,7.81,0Zm-17.68,5.53h0c0-2.74,0-5.49,0-8.23,0-.83-.39-1.21-1.21-1.23-.6-.01-1.19,0-1.79,0-1.2,0-1.48.28-1.48,1.45,0,3.51,0,7.02,0,10.52,0,1.89,0,3.77,0,5.66,0,.94.36,1.29,1.28,1.29.6,0,1.19,0,1.79,0,1.12,0,1.42-.3,1.42-1.44,0-2.67,0-5.35,0-8.02Zm19.26-56.16c-1.8.03-3.43,1.65-3.41,3.36.02,1.76,1.8,3.4,3.64,3.38,1.35-.02,3.35-1.77,3.22-2.88-.32-2.78-1.12-3.69-3.45-3.86Zm2.61,17.63c0-1.85-1.35-3.12-3.28-3.16-2.29-.05-3.4,1.58-3.43,3.1-.04,2.06,1.67,3.59,3.36,3.63,1.78.04,3.35-1.71,3.34-3.56Zm-9.62-39.25c-1.55.02-2.74,1.14-2.71,2.56.02,1.18,1.27,2.44,2.43,2.45,1.4.01,2.74-1.24,2.74-2.56,0-1.4-1.07-2.47-2.45-2.46Zm-.67,48.71c1.85.11,2.67-1.31,2.69-2.37.02-1.57-1.12-2.69-2.79-2.76-1.05-.04-2.23,1.25-2.24,2.44,0,1.42,1.1,2.69,2.34,2.69Zm11.41-44.12c-.05,1.44,1.12,2.59,2.34,2.55,1.45-.05,2.65-1.02,2.72-2.68.05-1.06-.97-2.49-2.51-2.44-1.53.05-2.66,1.34-2.55,2.57Zm-7.29,28.07c.21-1.37-1.01-2.56-2.56-2.6-1.32-.03-2.45,1.31-2.44,2.47,0,1.38,1.2,2.57,2.59,2.57,1.44,0,2.41-.98,2.41-2.44Zm-2.36-19.05c-1.21-.26-2.56,1.39-2.56,2.48,0,1.27,1.43,2.57,2.4,2.53,1.54-.05,2.86-1.36,2.8-2.86-.04-1.16-1.26-2.16-2.64-2.16Zm7.81-14.52c.02-.97-.58-1.6-1.54-1.64-.96-.04-1.75.72-1.76,1.68,0,.84.71,1.56,1.55,1.58,1.15.03,1.73-.51,1.75-1.63Zm-.43,50.58c.01-.97-.5-1.53-1.42-1.54-1.05-.01-1.87.64-1.88,1.5,0,.73.98,1.86,1.66,1.78.99-.11,1.84-.83,1.64-1.74Zm-11.18-10.93c0-.96-.69-1.66-1.63-1.66-.84,0-1.67.81-1.66,1.61,0,.89.83,1.69,1.75,1.7.86.01,1.54-.72,1.55-1.65Zm-1.39-27.28c.82,0,1.68-.88,1.67-1.74,0-.82-.87-1.56-1.8-1.55-.77,0-1.52.85-1.52,1.7,0,.87.74,1.59,1.65,1.6Zm-1.43-13.45c.95.03,1.67-.64,1.67-1.53,0-.87-.76-1.62-1.68-1.65-.84-.03-1.6.71-1.61,1.56-.01.8.78,1.6,1.62,1.63Zm-.34,52.56c-1.04,0-1.72.61-1.72,1.56,0,.87.69,1.57,1.58,1.59.85.02,1.58-.73,1.59-1.63,0-.96-.51-1.51-1.45-1.51Zm8.76,3.6c0-.81-.54-1.33-1.33-1.32-.76.01-1.41.64-1.39,1.34.02.67.74,1.4,1.38,1.39.75,0,1.36-.65,1.35-1.42Zm-10.18-10.3c-.02-.86-.51-1.36-1.3-1.33-.69.03-1.46.76-1.42,1.35.03.5.89,1.38,1.36,1.39.75.01,1.38-.63,1.36-1.41ZM71.77,0c-.8,0-1.42.56-1.4,1.26.02.63.72,1.32,1.32,1.32.81-.01,1.41-.59,1.4-1.37C73.09.43,72.61,0,71.77,0Zm-11.72,11.33c-.03.59.68,1.41,1.23,1.42.74,0,1.38-.6,1.45-1.35.06-.68-.55-1.33-1.29-1.38-.72-.04-1.36.56-1.4,1.32Z"/>
              <path class="cls-2" d="m109.23,78.99c-2.91,0-5.82,0-8.73,0-.66,0-.92.55-1,1.06-.21,1.34.48,2.17,1.86,2.18,2.1.01,4.2.22,6.3.3,1.58.06,3.15.23,4.73.28,1.66.05,3.28.44,4.59,1.48.71.56,1.23,1.32,1.27,2.4.03.63.31,1.3.28,1.98-.08,1.61-.42,3.11-1.77,4.19-.48.38-1.01.66-1.58.77-.77.16-1.53.35-2.33.34-4.66-.03-9.32-.02-13.97-.02-1.74,0-3.63-1.82-3.71-3.5-.02-.43.06-.58.52-.58,5.28,0,10.56-.03,15.84-.03.65,0,1.28.27,1.91-.14.58-.38.85-.98.65-1.86-.14-.63-.5-.92-1.2-1.07-1.22-.26-2.46-.19-3.67-.28-1.21-.08-2.5-.07-3.72-.16-2.11-.15-4.26.02-6.32-.53-2.27-.61-3.73-2.1-4.02-4.59-.16-1.39.02-2.7.67-3.91.67-1.25,1.77-1.99,3.19-2.24.91-.16,1.83-.22,2.76-.22,4.13,0,8.27,0,12.4,0,1.42,0,2.61.42,3.54,1.57.48.6.64,1.28.83,1.97.12.43-.07.61-.56.6-2.91-.02-5.83-.01-8.74-.01h0Z"/>
              <path class="cls-1" d="m161.42,89.31c3.29-2.42,6.57-4.84,9.86-7.26,1.21-.89,2.41-1.79,3.66-2.72-.26-.21-.52-.13-.76-.13-4.01,0-8.03,0-12.04,0-1.35,0-1.59-.24-1.59-1.58,0-.43,0-.86,0-1.29.01-1.04.23-1.27,1.25-1.27,3.42,0,6.83,0,10.25,0,2.87,0,5.73,0,8.6,0,1.28,0,1.47.26,1.55,1.56.05.75-.22,1.45-.2,2.19,0,.27-.37.6-.65.8-2.12,1.49-4.13,3.12-6.26,4.59-.99.68-1.9,1.52-2.91,2.19-1.39.92-2.63,2.02-3.98,2.98-.14.1-.35.17-.38.4.25.14.51.07.76.07,4.06,0,8.12,0,12.18,0,1.15,0,1.44.29,1.45,1.43,0,.48,0,.96,0,1.43-.01.95-.34,1.28-1.31,1.28-1.58,0-3.15,0-4.73,0-3.25,0-6.5.02-9.74.02-1.52,0-3.04-.01-4.55-.02-1.01,0-1.33-.32-1.34-1.31,0-.62,0-1.23,0-1.85.14-.05.14-.16.12-.28-.11-.64.37-.91.77-1.23Z"/>
              <path class="cls-1" d="m152.77,87.33c.3.29.6.58.93.89.18-.31.11-.58.11-.83,0-3.6,0-7.19,0-10.79,0-1.35.2-1.54,1.58-1.54.52,0,1.05,0,1.57,0,.94.02,1.39.46,1.39,1.4.01,3.07.02,6.14.03,9.22,0,2.27-.02,4.53-.03,6.8,0,1.21-.32,1.4-1.53,1.53-2.1.23-3.66-.45-5.18-1.97-3.55-3.56-7.31-6.92-10.99-10.36-.3-.29-.62-.56-.95-.86-.18.32-.11.59-.11.84,0,3.75,0,7.49,0,11.24,0,.77-.28,1.07-1.06,1.09-.74.02-1.48,0-2.22,0-.63.01-1.05-.25-1.22-.88.01-.04,0-.07-.03-.1.06-.55.08-1.1-.01-1.64,0-.07,0-.14,0-.21.02-.88.05-1.76.05-2.64,0-3.11-.03-6.23-.05-9.34.02-1.13.04-2.25.06-3.38.08-.41.39-.67.73-.69,1.2-.05,2.42-.2,3.62.09.34.08.59.26.84.49,4,3.76,8,7.51,12.01,11.26.1.1.22.18.33.26,0,0,.03.03.03.03,0,.05.04.08.09.09Z"/>
              <path class="cls-2" d="m91.29,93.92c-.97.12-1.95.07-2.92.04-.65-.02-.96-.41-.97-1.16-.01-1.43,0-2.86,0-4.29,0-2.38-.02-4.76-.03-7.14.01-1.64.02-3.29.04-4.93,0-1.13.26-1.41,1.38-1.38.77.02,1.55-.12,2.32.11.56.16.77.49.78,1.02,0,5.51,0,11.01,0,16.52,0,.48-.15.92-.59,1.21Z"/>
              <path class="cls-1" d="m91.27,36.66c-2.8.29-5.2-2.94-5.16-5.03.04-2.72,2.04-5.04,4.47-5.14,3.45-.13,5.64,2.18,5.75,4.93.11,2.68-2.37,5.44-5.06,5.24Z"/>
              <path class="cls-1" d="m83.71,28.1c-.51-.07-1.02-.05-1.54-.17-2.32-.54-3.75-3.28-3.3-5.03.75-2.86,3.2-4.11,5.94-3.15.16.05.31.12.46.18,1.88,1.39,2.58,3.14,2.01,5.05-.44,1.45-1.41,2.39-2.85,2.86-.24.08-.52.07-.73.26Z"/>
              <path class="cls-1" d="m94.31,23.19c-.13-2.1,2.2-4.34,4.55-4.18,2.27.15,4.11,2.04,4.05,4.34-.07,2.5-2.02,4.33-4.53,4.26-2.34-.06-4.16-1.96-4.07-4.42Z"/>
              <path class="cls-1" d="m82.27,42.9c-.96,0-1.77-.37-2.52-.94-1.06-.81-2.13-3.11-1.4-4.63.61-1.26,1.31-2.34,2.68-2.85.65-.24,1.31-.06,1.96-.13,2.33.54,3.74,2.17,3.74,4.32,0,2.24-1.71,4.04-3.96,4.19-.17.01-.33.03-.5.05Z"/>
              <path class="cls-1" d="m94.17,39.76c0-2.08,1.96-4.09,3.98-4.09,2.71,0,4.66,1.64,4.6,3.99-.06,2.84-1.68,4.42-4.31,4.51-2.41.08-4.28-2.12-4.27-4.41Z"/>
              <path class="cls-2" d="m104.69,28.36c1.75,0,3.38,1.33,3.39,3.39,0,1.59-1.3,3.29-3.57,3.32-1.77.02-3.26-1.79-3.17-3.52.08-1.54,1.36-3.25,3.35-3.19Z"/>
              <path class="cls-2" d="m109.22,46.42c.3,1.81-1.76,3.33-3.41,3.3-1.69-.03-3.28-1.63-3.16-3.45.13-1.8,1.18-3.22,3.18-3.25,1.78-.03,3.54,1.1,3.39,3.4Z"/>
              <path class="cls-2" d="m109.51,16.3c0,1.78-1.7,3.5-3.47,3.47-1.54-.02-3.33-1.83-3.25-3.39.08-1.68,1.21-3.35,3.21-3.35,2.17,0,3.7,1.74,3.51,3.27Z"/>
              <path class="cls-2" d="m93.31,45.76c.05,2.2-1.77,3.43-3.26,3.38-.58-.02-1.29.06-1.68-.31-.86-.82-1.68-1.73-1.66-3.08.03-1.99,1.36-3.2,3.6-3.21,1.72,0,3,1.36,3,3.21Z"/>
              <path class="cls-2" d="m92.6,20.77c-2.39.79-3.96.05-4.77-2.25-.31-.86.13-2.15.79-2.81.48-.49.9-.96,1.63-1.12,1.89-.41,3.6.58,4.07,2.4.41,1.6-.11,2.74-1.58,3.67-.11-.06-.13.01-.14.1Z"/>
              <path class="cls-2" d="m99.41,8.45c1.44-.13,2.63,1.07,2.63,2.51,0,1.48-1.36,2.49-2.53,2.53-1.23.05-2.68-1.41-2.63-2.63.05-1.42,1.05-2.41,2.53-2.41Z"/>
              <path class="cls-2" d="m113.14,12.21c-1.52-.03-2.6-1.2-2.62-2.65-.02-1.27,1.26-2.46,2.51-2.38,1.72.11,2.62,1.1,2.63,2.63.01,1.37-1.12,2.42-2.52,2.41Z"/>
              <path class="cls-2" d="m85.26,50.99c-.26.86-.48,1.75-1.3,2.29-.46.16-.93.31-1.39.47-1.07-.23-1.9-.76-2.35-1.81-.55-1.27.24-2.91,1.58-3.25.16-.04.32-.08.48-.13,1.37.11,2.45.59,2.75,2.1.02.12.15.22.23.33Z"/>
              <path class="cls-2" d="m101.62,51.59c.28,1.32-1.32,2.68-2.55,2.59-1.43-.11-2.4-1.05-2.49-2.46-.07-1.17,1.2-2.58,2.64-2.58,1.52,0,2.55,1.12,2.4,2.45Z"/>
              <path class="cls-2" d="m110.82,42.25c-1.29-.02-2.56-1.21-2.45-2.42.13-1.41,1.11-2.6,2.67-2.6,1.3,0,2.49,1.17,2.47,2.44-.02,1.33-1.25,2.76-2.69,2.58Z"/>
              <path class="cls-2" d="m112.88,50.71c1.37,0,2.36.87,2.36,2.09,0,1.76-1,2.9-2.57,2.92-1.23.01-2.45-1.27-2.45-2.57,0-1.37,1.15-2.44,2.65-2.44Z"/>
              <path class="cls-2" d="m110.97,20.63c1.43,0,2.49.96,2.58,2.19.13,1.82-1.39,2.81-2.46,2.82-1.3.02-2.56-1.28-2.57-2.61,0-1.46.94-2.39,2.45-2.4Z"/>
              <path class="cls-2" d="m116.16,47.42c-.94.06-1.55-.96-1.62-1.72-.07-.8.87-1.6,1.75-1.58.86.02,1.67.8,1.67,1.61,0,.87-.88,1.69-1.81,1.69Z"/>
              <path class="cls-2" d="m105.27,55.44c1.13,0,1.66.49,1.66,1.54,0,.98-.65,1.61-1.67,1.61-.91,0-1.63-.71-1.63-1.61,0-1.04.54-1.54,1.64-1.54Z"/>
              <path class="cls-2" d="m105.74,4.16c1.05,0,1.61.53,1.62,1.52,0,1.01-.64,1.63-1.7,1.63-.88,0-1.59-.7-1.59-1.57,0-1.03.59-1.58,1.68-1.59Z"/>
              <path class="cls-2" d="m116.35,18.77c-.76,0-1.54-.81-1.54-1.59,0-.93.7-1.57,1.69-1.56.95,0,1.61.68,1.6,1.64,0,.88-.75,1.52-1.76,1.52Z"/>
              <path class="cls-2" d="m120.26,58.7c.11.93-.71,1.56-1.61,1.6-.79.04-1.58-.89-1.56-1.74.01-.79.72-1.56,1.4-1.54,1.12.04,1.77.66,1.77,1.68Z"/>
              <path class="cls-2" d="m120.69,4.29c0,.99-.64,1.61-1.64,1.6-.83,0-1.5-.69-1.5-1.52,0-.87.79-1.67,1.66-1.66.96,0,1.49.57,1.48,1.58Z"/>
              <path class="cls-2" d="m109.09,61.13c.02-.72.64-1.19,1.36-1.23.76-.04,1.37.61,1.35,1.34-.02.72-.72,1.39-1.45,1.36-.62-.02-1.27-.78-1.26-1.47Z"/>
              <path class="cls-2" d="m121.05,10.59c.79,0,1.41.62,1.39,1.38-.02.7-.69,1.35-1.39,1.35-.54,0-1.35-.8-1.36-1.34-.02-.67.69-1.39,1.36-1.39Z"/>
              <path class="cls-2" d="m122.13,51.03c.01.74-.61,1.37-1.39,1.39-.58.02-1.31-.69-1.34-1.3-.03-.63.66-1.39,1.26-1.4.81-.01,1.46.56,1.47,1.31Z"/>
              <path class="cls-2" d="m112.23,1.57c0,.85-.45,1.29-1.31,1.3-.75,0-1.38-.56-1.41-1.26-.03-.7.64-1.32,1.41-1.32.88,0,1.3.42,1.3,1.28Z"/>
              <path class="cls-3" d="m135.12,75.8c-.02,1.13-.04,2.25-.06,3.38-.04-1.13-.14-2.25.06-3.38Z"/>
              <path class="cls-3" d="m160.64,90.54c.02.12.02.23-.12.28-.15-.18-.04-.24.12-.28Z"/>
              <path class="cls-3" d="m135.06,91.15c0,.07,0,.14,0,.21,0-.07,0-.14,0-.21Z"/>
              <path class="cls-3" d="m92.6,20.77c0-.08.03-.15.14-.1-.05.03-.09.07-.14.1Z"/>
              <path class="cls-3" d="m135.07,93s.04.06.03.1c-.03-.03-.04-.06-.03-.1Z"/>
              <path class="cls-2" d="m14.55,79.09c-2.79,0-5.59,0-8.38,0-1.45,0-1.71.27-1.71,1.71,0,2.48,0,4.96,0,7.45,0,1.4.31,1.71,1.74,1.71,5.61,0,11.22,0,16.83,0,.63,0,.84.04.66.8-.37,1.64-1.71,3.09-3.76,3.22-4.9.31-9.81.07-14.72.13-1.66.02-3.14-.42-4.21-1.77C.34,91.49,0,90.53,0,89.44c0-3.29-.01-6.59.01-9.88.02-2.27,1.27-3.83,3.44-4.34.78-.18,1.57-.28,2.38-.28,4.15,0,8.31-.02,12.46.02,1.31.01,2.59.29,3.77.88.76.38,1.85,2.31,1.74,3.06-.05.33-.34.18-.52.18-1.6.01-3.2,0-4.8,0-1.31,0-2.63,0-3.94,0Z"/>
              <path class="cls-2" d="m38.27,75.02c1.79.01,3.57.02,5.36.03.89,0,1.78.07,2.65.29,1.64.42,2.73,1.35,3.07,3.08.5,2.58.45,5.15-.03,7.73-.11.59-.47,1.02-.78,1.5-1.15,1.06-2.61,1.29-4.17,1.52,1.66,1.59,3.24,3.11,4.86,4.66-.3.23-.57.14-.81.14-1.67.01-3.34,0-5.01.01-.29,0-.53-.01-.78-.25-2.87-2.8-5.76-5.58-8.64-8.36-.05-.05-.07-.11-.2-.31h6.2c1.36,0,2.71.03,4.07.02.51,0,.89-.18.98-.78.21-1.44.13-2.88.04-4.32-.04-.62-.58-.76-1.09-.76-1.67,0-3.33.01-5,.02-3.65-.01-7.29-.04-10.94-.01-.73,0-.98-.17-.9-.9.06-.54.01-1.09.01-1.64,0-1.35.27-1.62,1.67-1.62,2.88,0,5.77,0,8.65,0,.26,0,.52-.02.78-.03Z"/>
              <path class="cls-5" d="m152.77,87.33s-.08-.04-.09-.09c.03.03.06.06.09.09Z"/>
              <path class="cls-2" d="m75.07,78.98c-2.6,0-5.21,0-7.81,0-.21,0-.43,0-.64,0-1.1.07-1.47.36-1.54,1.21-.1,1.13.29,1.6,1.34,1.9,1.02.29,2.07.13,3.1.22,1.19.11,2.41.18,3.62.22,2.17.07,4.35.14,6.5.45,2.04.29,3.69,1.34,4.19,3.51.47,2.06.5,4.13-.98,5.88-.97,1.15-2.36,1.56-3.76,1.58-4.82.08-9.65.02-14.47.02-1.43,0-2.47-.72-3.27-1.82-.29-.4-.5-.85-.65-1.32-.22-.74-.08-.94.67-.94,2.2-.01,4.39-.02,6.59-.03,3.3-.01,6.59-.02,9.89-.02.38,0,.75-.04,1.11-.16.07-.02.14-.03.2-.07.75-.54.34-1.33.37-1.99.02-.5-.45-.77-.94-.8-1.7-.1-3.39-.24-5.1-.3-2.43-.09-4.87-.2-7.3-.44-1.68-.17-3.32-.61-4.43-2.06-.7-.92-1.07-1.97-1.13-3.14-.07-1.42.11-2.78.94-3.98.99-1.42,2.5-1.87,4.11-1.97,3.05-.18,6.11-.03,9.17-.07,1.67-.02,3.34-.05,5.01,0,1.59.06,2.97.61,3.8,2.09.31.55.33,1.17.44,1.76.08.42-.36.26-.57.26-2.82.01-5.64,0-8.45,0Z"/>
              <path class="cls-2" d="m57.39,84.52c0,2.67,0,5.35,0,8.02,0,1.14-.3,1.44-1.42,1.44-.6,0-1.19,0-1.79,0-.92,0-1.27-.35-1.28-1.29,0-1.89,0-3.77,0-5.66,0-3.51,0-7.02,0-10.52,0-1.18.28-1.45,1.48-1.45.6,0,1.19,0,1.79,0,.83.02,1.21.4,1.21,1.23,0,2.74,0,5.49,0,8.23h0Z"/>
              <path class="cls-2" d="m76.65,28.36c2.33.17,3.13,1.08,3.45,3.86.13,1.12-1.87,2.86-3.22,2.88-1.84.03-3.62-1.62-3.64-3.38-.02-1.72,1.61-3.33,3.41-3.36Z"/>
              <path class="cls-2" d="m77.53,19.07c-1.08.73-3.03.41-3.83-.65-1.12-1.49-1.19-2.77-.16-4.4.71-1.12,2.68-1.59,4.16-.9,1.33.62,2.06,2.18,1.73,3.6-.23.99-.62,1.83-1.64,2.22-.12-.03-.22,0-.27.12Z"/>
              <path class="cls-2" d="m79.27,45.98c0,1.85-1.56,3.6-3.34,3.56-1.69-.04-3.4-1.56-3.36-3.63.03-1.51,1.14-3.14,3.43-3.1,1.93.04,3.27,1.31,3.28,3.16Z"/>
              <path class="cls-2" d="m69.65,6.73c1.38-.01,2.45,1.06,2.45,2.46,0,1.32-1.34,2.57-2.74,2.56-1.16-.01-2.4-1.27-2.43-2.45-.03-1.42,1.17-2.55,2.71-2.56Z"/>
              <path class="cls-2" d="m68.98,55.44c-1.25,0-2.35-1.27-2.34-2.69,0-1.19,1.19-2.48,2.24-2.44,1.67.07,2.81,1.19,2.79,2.76-.01,1.06-.84,2.49-2.69,2.37Z"/>
              <path class="cls-2" d="m80.39,11.32c-.11-1.24,1.03-2.52,2.55-2.57,1.54-.05,2.55,1.38,2.51,2.44-.08,1.66-1.27,2.63-2.72,2.68-1.22.04-2.39-1.11-2.34-2.55Z"/>
              <path class="cls-2" d="m73.1,39.4c0,1.46-.98,2.45-2.41,2.44-1.39,0-2.59-1.19-2.59-2.57,0-1.16,1.12-2.5,2.44-2.47,1.55.04,2.77,1.23,2.56,2.6Z"/>
              <path class="cls-2" d="m70.74,20.34c1.38,0,2.59.99,2.64,2.16.06,1.5-1.26,2.81-2.8,2.86-.97.03-2.4-1.26-2.4-2.53,0-1.1,1.35-2.74,2.56-2.48Z"/>
              <path class="cls-2" d="m78.55,5.82c-.02,1.12-.6,1.66-1.75,1.63-.84-.02-1.55-.74-1.55-1.58,0-.96.8-1.72,1.76-1.68.97.04,1.56.67,1.54,1.64Z"/>
              <path class="cls-2" d="m78.12,56.41c.19.92-.65,1.63-1.64,1.74-.67.07-1.67-1.06-1.66-1.78.01-.86.83-1.51,1.88-1.5.92,0,1.44.57,1.42,1.54Z"/>
              <path class="cls-2" d="m66.94,45.48c0,.93-.69,1.66-1.55,1.65-.92-.01-1.74-.81-1.75-1.7,0-.8.82-1.61,1.66-1.61.95,0,1.64.69,1.63,1.66Z"/>
              <path class="cls-2" d="m65.55,18.2c-.91,0-1.65-.72-1.65-1.6,0-.85.75-1.69,1.52-1.7.93-.01,1.79.73,1.8,1.55,0,.86-.84,1.75-1.67,1.74Z"/>
              <path class="cls-2" d="m64.11,4.75c-.84-.02-1.63-.82-1.62-1.63.01-.85.78-1.58,1.61-1.56.91.03,1.67.78,1.68,1.65,0,.89-.72,1.56-1.67,1.53Z"/>
              <path class="cls-2" d="m63.77,57.3c.93,0,1.46.55,1.45,1.51,0,.9-.74,1.65-1.59,1.63-.88-.02-1.58-.72-1.58-1.59,0-.94.69-1.56,1.72-1.56Z"/>
              <path class="cls-2" d="m72.53,60.9c0,.77-.6,1.41-1.35,1.42-.63,0-1.36-.73-1.38-1.39-.02-.7.63-1.33,1.39-1.34.8-.01,1.32.51,1.33,1.32Z"/>
              <path class="cls-2" d="m62.35,50.6c.02.77-.61,1.42-1.36,1.41-.47,0-1.33-.89-1.36-1.39-.04-.59.73-1.32,1.42-1.35.79-.03,1.29.47,1.3,1.33Z"/>
              <path class="cls-2" d="m71.77,0c.84,0,1.32.43,1.33,1.21,0,.78-.59,1.36-1.4,1.37-.61,0-1.3-.68-1.32-1.32C70.35.56,70.97,0,71.77,0Z"/>
              <path class="cls-2" d="m60.06,11.33c.04-.75.68-1.36,1.4-1.32.74.04,1.35.7,1.29,1.38-.07.76-.71,1.36-1.45,1.35-.55,0-1.26-.82-1.23-1.42Z"/>
              <path class="cls-5" d="m77.53,19.07c.05-.13.15-.15.27-.12-.05.12-.14.17-.27.12Z"/>
            </g>
          </g>
        </g>
      </svg>